<svg width="24" height="24" viewBox="0 0 24 24" fill="none" xmlns="http://www.w3.org/2000/svg">
<path d="M11.728 14.896L11.536 6.768H13.072L12.864 14.896H11.728ZM12.304 18.208C12.0053 18.208 11.7493 18.1067 11.536 17.904C11.3333 17.7013 11.232 17.4507 11.232 17.152C11.232 16.8427 11.3333 16.5867 11.536 16.384C11.7493 16.1813 12.0053 16.08 12.304 16.08C12.6027 16.08 12.8533 16.1813 13.056 16.384C13.2693 16.5867 13.376 16.8427 13.376 17.152C13.376 17.4507 13.2693 17.7013 13.056 17.904C12.8533 18.1067 12.6027 18.208 12.304 18.208Z" fill="black"/>
<circle cx="12" cy="12" r="11.5" stroke="#999999"/>
</svg>
