<svg width="24" height="24" viewBox="0 0 24 24" fill="none" xmlns="http://www.w3.org/2000/svg">
<path d="M11.44 14.896L11.264 11.776C12.064 11.6907 12.6933 11.4933 13.152 11.184C13.6107 10.864 13.84 10.4 13.84 9.792C13.84 9.216 13.6747 8.76267 13.344 8.432C13.0133 8.10133 12.5653 7.936 12 7.936C11.5093 7.936 11.0987 8.08 10.768 8.368C10.4373 8.64533 10.2133 9.01333 10.096 9.472L8.656 9.2C8.80533 8.42133 9.184 7.79733 9.792 7.328C10.4 6.848 11.136 6.608 12 6.608C12.6507 6.608 13.2267 6.736 13.728 6.992C14.24 7.23733 14.64 7.6 14.928 8.08C15.216 8.54933 15.36 9.12 15.36 9.792C15.36 10.5493 15.12 11.1733 14.64 11.664C14.16 12.144 13.504 12.48 12.672 12.672L12.576 14.896H11.44ZM12 18.208C11.7013 18.208 11.4507 18.1067 11.248 17.904C11.0453 17.7013 10.944 17.4507 10.944 17.152C10.944 16.8427 11.0453 16.5867 11.248 16.384C11.4507 16.1813 11.7013 16.08 12 16.08C12.3093 16.08 12.5653 16.1813 12.768 16.384C12.9813 16.5867 13.088 16.8427 13.088 17.152C13.088 17.4507 12.9813 17.7013 12.768 17.904C12.5653 18.1067 12.3093 18.208 12 18.208Z" fill="black"/>
<circle cx="12" cy="12" r="11.5" stroke="#999999"/>
</svg>
